# xmcd
#
# Track frame offsets:
#	150
#	19902
#	41186
#	60554
#	82503
#	98398
#	120431
#	149814
#	170209
#	183914
#	203247
#	217253
#
# Disc length: 3115 seconds
#
# Revision: 1
# Processed by: cddbd v1.5.2PL0 Copyright (c) Steve Scherf et al.
# Submitted via: EasyCDDAExtractor 5.1.0
#
DISCID=a90c290c
DTITLE=Shlomo Artzi - My Love Songs - CD 1
DYEAR=2003
DGENRE=Country
TTITLE0=you'll never know
TTITLE1=moon
TTITLE2=it's a bit strange you didn't stay
TTITLE3=call call
TTITLE4=you don't know
TTITLE5=dance
TTITLE6=it's my turn, it's your turn
TTITLE7=after all you are a song
TTITLE8=promises
TTITLE9=must of the time you are my wife
TTITLE10=you were with me
TTITLE11=two
EXTD=YEAR: 2003
EXTT0=
EXTT1=
EXTT2=
EXTT3=
EXTT4=
EXTT5=
EXTT6=
EXTT7=
EXTT8=
EXTT9=
EXTT10=
EXTT11=
PLAYORDER=
